<svg width="40" height="40" viewBox="0 0 40 40" fill="none" xmlns="http://www.w3.org/2000/svg">
<rect x="0.5" y="0.500488" width="39" height="39" rx="19.5" stroke="white"/>
<g clip-path="url(#clip0_701_6847)">
<path d="M20.004 15.6878C17.619 15.6878 15.6952 17.6116 15.6952 19.9966C15.6952 22.3816 17.619 24.3053 20.004 24.3053C22.389 24.3053 24.3127 22.3816 24.3127 19.9966C24.3127 17.6116 22.389 15.6878 20.004 15.6878ZM20.004 22.7978C18.4627 22.7978 17.2027 21.5416 17.2027 19.9966C17.2027 18.4516 18.459 17.1953 20.004 17.1953C21.549 17.1953 22.8052 18.4516 22.8052 19.9966C22.8052 21.5416 21.5452 22.7978 20.004 22.7978ZM25.494 15.5116C25.494 16.0703 25.044 16.5166 24.489 16.5166C23.9302 16.5166 23.484 16.0666 23.484 15.5116C23.484 14.9566 23.934 14.5066 24.489 14.5066C25.044 14.5066 25.494 14.9566 25.494 15.5116ZM28.3477 16.5316C28.284 15.1853 27.9765 13.9928 26.9902 13.0103C26.0077 12.0278 24.8152 11.7203 23.469 11.6528C22.0815 11.5741 17.9227 11.5741 16.5352 11.6528C15.1927 11.7166 14.0002 12.0241 13.014 13.0066C12.0277 13.9891 11.724 15.1816 11.6565 16.5278C11.5777 17.9153 11.5777 22.0741 11.6565 23.4616C11.7202 24.8078 12.0277 26.0003 13.014 26.9828C14.0002 27.9653 15.189 28.2728 16.5352 28.3403C17.9227 28.4191 22.0815 28.4191 23.469 28.3403C24.8152 28.2766 26.0077 27.9691 26.9902 26.9828C27.9727 26.0003 28.2802 24.8078 28.3477 23.4616C28.4265 22.0741 28.4265 17.9191 28.3477 16.5316ZM26.5552 24.9503C26.2627 25.6853 25.6965 26.2516 24.9577 26.5478C23.8515 26.9866 21.2265 26.8853 20.004 26.8853C18.7815 26.8853 16.1527 26.9828 15.0502 26.5478C14.3152 26.2553 13.749 25.6891 13.4527 24.9503C13.014 23.8441 13.1152 21.2191 13.1152 19.9966C13.1152 18.7741 13.0177 16.1453 13.4527 15.0428C13.7452 14.3078 14.3115 13.7416 15.0502 13.4453C16.1565 13.0066 18.7815 13.1078 20.004 13.1078C21.2265 13.1078 23.8552 13.0103 24.9577 13.4453C25.6927 13.7378 26.259 14.3041 26.5552 15.0428C26.994 16.1491 26.8927 18.7741 26.8927 19.9966C26.8927 21.2191 26.994 23.8478 26.5552 24.9503Z" fill="white"/>
</g>
<defs>
<clipPath id="clip0_701_6847">
<rect width="16.8" height="19.2" fill="white" transform="translate(11.6001 10.4004)"/>
</clipPath>
</defs>
</svg>
