<svg width="109" height="96" viewBox="0 0 109 96" fill="white" xmlns="http://www.w3.org/2000/svg">
<path fill-rule="evenodd" clip-rule="evenodd" d="M54.0979 5.60132C54.0979 3.54789 53.9969 1.62911 53.8622 1.29248C53.6266 0.78754 53.0207 0.720215 47.9713 0.720215C41.508 0.753878 40.3971 1.02318 38.411 2.94196C36.1219 5.16371 36.0546 5.60132 36.1556 17.518L36.2566 28.0881L38.8486 28.0208C43.9654 27.8861 49.1495 29.9395 52.7514 33.5415C55.8484 36.6384 58.3057 41.8898 58.3057 45.3908V46.8383H56.286H54.2662V45.6601C54.2662 44.1116 53.1553 40.779 52.0445 39.0285C49.3514 34.787 44.4367 32.0603 39.4546 32.0266C39.213 32.0266 38.9887 32.0242 38.7804 32.022C37.7485 32.0111 37.1096 32.0043 36.7148 32.3114C36.073 32.8107 36.0765 34.1394 36.0858 37.6285C36.087 38.0804 36.0883 38.5686 36.0883 39.0958C36.0883 44.4145 36.1893 45.9967 36.6269 47.0402C37.3001 48.6897 38.5793 50.0699 40.2961 50.9788C41.5753 51.6857 42.1476 51.7194 52.1791 51.8204C62.076 51.9213 62.7156 51.8877 62.9512 51.3154C63.0858 50.9788 63.1868 48.959 63.1868 46.8383C63.1532 42.6641 62.4799 39.6681 60.7631 36.2345C57.2958 29.4009 50.193 24.2505 42.9892 23.3416L40.9694 23.106L40.8684 21.0525L40.7674 19.0328L43.1911 19.3021C52.3474 20.413 60.8641 26.7416 64.8363 35.4602C66.6878 39.4661 67.2264 42.0581 67.26 47.1749L67.3274 51.7194L69.6838 51.8204L72.0402 51.9213L72.1748 49.464C72.5114 41.7215 70.6936 34.7197 66.8561 28.997L65.0046 26.203L66.3848 24.2505C68.4046 21.3555 70.3234 17.114 71.2659 13.3438C71.9728 10.6507 72.1412 9.13592 72.1748 5.70231C72.1748 3.37958 72.0738 1.29248 71.9392 1.09051C71.8382 0.888529 70.6936 0.720215 69.4481 0.720215H67.159L67.3274 4.05283C67.5967 9.43888 66.2502 15.0606 63.6581 19.4031L63.5224 19.6339L63.5223 19.634C62.4455 21.466 62.0038 22.2173 61.4956 22.2654C61.1422 22.2989 60.7567 21.9924 60.103 21.4729L59.9552 21.3555L58.3731 20.1437L59.5513 18.2922C62.5472 13.6467 63.9947 7.04882 63.1532 1.96574L62.9175 0.720215H60.4265H57.9018L58.1374 1.96574C58.5077 4.05283 58.3731 8.19336 57.8345 10.2468C57.2622 12.3002 55.983 15.0606 54.8385 16.6091C54.1652 17.518 54.1315 17.518 52.9534 17.013C52.2801 16.71 51.4049 16.3398 50.9672 16.1714L50.193 15.8685L51.2029 14.623C51.7752 13.916 52.6504 12.4349 53.1553 11.324C53.9969 9.50621 54.0979 8.93394 54.0979 5.60132ZM6.29671 79.5585L6.1284 71.5468L5.96008 63.5014L3.26706 63.4004C1.75223 63.3667 0.439383 63.4004 0.304731 63.535C0.17008 63.6697 0.0690918 70.9408 0.0690918 79.7268V95.6493H3.09874H6.1284V91.5088V87.3683L8.65311 84.8772C10.1679 83.3624 11.2788 82.5208 11.4471 82.6891C11.4829 82.7321 11.625 82.8996 11.8549 83.1705L11.8566 83.1726C12.7095 84.1777 14.7641 86.5993 17.0688 89.3544L22.3875 95.683L27.4706 95.582L32.5537 95.481L34.0685 91.8454L35.5833 88.2435H43.4941H51.4385L52.9534 91.8454L54.5018 95.481L59.7532 95.582L65.0383 95.683V91.1722V86.6614L70.357 86.4594C77.7292 86.1564 80.6578 85.2139 83.1825 82.3525L84.2261 81.1407V88.4118V95.6493H96.2774H108.295L108.261 93.5286L108.254 93.2826C108.223 92.2154 108.192 91.1481 108.16 90.8355C108.127 90.2969 107.453 90.2633 99.206 90.2633H90.2854V86.0554V81.8476H98.0278H105.77V79.3229V76.7982H98.0278H90.2854V72.7586V68.7191H99.0377H107.824L107.723 66.0934L107.622 63.5014H96.0081H84.3944L84.2934 66.0934L84.1924 68.6854L82.9806 67.3389C81.6004 65.8241 79.8499 64.8142 77.3252 64.1073C75.5074 63.5687 61.4364 63.0637 59.8542 63.4677L58.979 63.6697V77.4041L58.9453 91.1049L57.8345 88.5801C54.6365 81.3763 48.4762 67.8438 47.5 65.8241L46.3554 63.5014H43.4941H40.6328L39.9595 64.8479C39.5892 65.6221 36.6269 72.1527 33.3953 79.4239C30.1636 86.6614 27.4033 92.6197 27.3023 92.6197C27.2013 92.6197 24.441 89.2871 21.1757 85.2139L15.2174 77.8417L17.8431 75.0477C26.831 65.5211 28.3122 63.8716 28.1439 63.6023C28.0429 63.4677 26.629 63.333 24.9796 63.333H21.9836L17.4728 67.9448C14.9817 70.5032 11.4471 74.1725 9.62933 76.0912L6.29671 79.5585ZM41.609 6.47655C41.0704 7.04882 40.9357 7.82307 40.8684 10.6844L40.7337 14.1853H42.7535C44.6723 14.1853 44.8406 14.118 46.2544 12.7378C47.8366 11.1893 49.0485 9.03493 49.3851 7.01516L49.6207 5.76963H45.9515C42.6189 5.76963 42.1812 5.83696 41.609 6.47655ZM42.0466 46.367C41.1377 45.6601 40.8011 44.0106 40.8011 40.3077V37.0087L41.7436 37.2444C45.5139 38.1869 48.7118 41.6205 49.4188 45.5591L49.6207 46.8383H46.1535C43.7297 46.8046 42.4506 46.67 42.0466 46.367ZM65.072 74.5091C65.0383 77.7071 65.1729 80.5347 65.3413 80.804C65.7789 81.4773 74.9015 81.1743 76.3153 80.4337C80.0182 78.4476 80.8598 73.7348 78.0658 70.8062C76.5173 69.224 74.4639 68.7191 69.3808 68.7191H65.1056L65.072 74.5091ZM37.8388 83.0258L40.5654 76.5625C42.0803 72.9943 43.3931 70.0656 43.4941 70.0656C43.5951 70.0656 44.9079 72.9943 46.4228 76.5625L49.1495 83.0258L46.3218 83.1268C44.7733 83.1604 42.2149 83.1604 40.6664 83.1268L37.8388 83.0258Z" fill="white"/>
</svg>
