<svg width="20" height="21" viewBox="0 0 20 21" fill="none" xmlns="http://www.w3.org/2000/svg">
<mask id="mask0_713_976" style="mask-type:alpha" maskUnits="userSpaceOnUse" x="0" y="0" width="20" height="21">
<rect y="0.500488" width="20" height="20" fill="#D9D9D9"/>
</mask>
<g mask="url(#mask0_713_976)">
<path d="M9.9998 18.2707C9.80535 18.2707 9.61091 18.236 9.41646 18.1665C9.22202 18.0971 9.04841 17.9929 8.89563 17.854C7.99285 17.0207 7.19424 16.2082 6.4998 15.4165C5.80535 14.6248 5.22549 13.8575 4.76021 13.1144C4.29494 12.3714 3.94077 11.6561 3.69771 10.9686C3.45466 10.2811 3.33313 9.62484 3.33313 8.99984C3.33313 6.9165 4.00327 5.25678 5.34355 4.02067C6.68382 2.78456 8.23591 2.1665 9.9998 2.1665C11.7637 2.1665 13.3158 2.78456 14.656 4.02067C15.9963 5.25678 16.6665 6.9165 16.6665 8.99984C16.6665 9.62484 16.5449 10.2811 16.3019 10.9686C16.0588 11.6561 15.7047 12.3714 15.2394 13.1144C14.7741 13.8575 14.1942 14.6248 13.4998 15.4165C12.8054 16.2082 12.0067 17.0207 11.104 17.854C10.9512 17.9929 10.7776 18.0971 10.5831 18.1665C10.3887 18.236 10.1942 18.2707 9.9998 18.2707ZM9.9998 10.4998C10.4581 10.4998 10.8505 10.3366 11.1769 10.0103C11.5033 9.68387 11.6665 9.2915 11.6665 8.83317C11.6665 8.37484 11.5033 7.98248 11.1769 7.65609C10.8505 7.3297 10.4581 7.1665 9.9998 7.1665C9.54146 7.1665 9.1491 7.3297 8.82271 7.65609C8.49632 7.98248 8.33313 8.37484 8.33313 8.83317C8.33313 9.2915 8.49632 9.68387 8.82271 10.0103C9.1491 10.3366 9.54146 10.4998 9.9998 10.4998Z" fill="#EEEBE2"/>
</g>
</svg>
